<svg width="50" height="9" viewBox="0 0 50 9" fill="none" xmlns="http://www.w3.org/2000/svg">
<path d="M1.98087 0.614769L6.07923 0.922146L7.17213 2.35657L7.4112 3.75685L7.17213 4.9522L6.07923 6.6257H1.98087L1.43443 3.48362L1.98087 0.614769Z" fill="white"/>
<path fill-rule="evenodd" clip-rule="evenodd" d="M7.18544 2.20013C6.64782 0.891728 5.01448 -0.121961 3.3088 0.051845C3.31204 0.0529246 3.5938 0.214856 3.66505 0.451275C2.80033 0.143606 1.73267 0.170594 1.05039 0.739513C1.76721 0.586218 1.93886 1.37105 1.235 1.9065C0.207272 2.68701 0.201875 3.37468 0.200795 3.37576C0.574317 3.57007 0.830168 3.96087 0.831248 4.41212V4.41428C0.831248 4.94217 0.481476 5.3891 0 5.53484C0.293636 7.01166 1.50596 8.06745 3.11772 8.06745C3.56249 8.06745 4.00186 7.98648 4.41965 7.83967C5.89106 7.32041 7.10231 5.96774 7.39918 4.36678C7.40782 4.32143 7.41322 4.27717 7.42186 4.23291C7.63345 3.11019 7.18112 2.19366 7.18436 2.20121L7.18544 2.20013ZM6.62407 4.94109C6.54958 4.9357 6.47618 4.90979 6.40493 4.86768C6.46322 5.347 6.04544 6.0703 5.35129 6.09944C5.65572 5.74104 5.54777 5.04149 5.37936 4.93678C5.0393 5.26064 4.57726 5.46467 4.05908 5.47763C2.94391 5.50569 1.98852 4.64314 1.9259 3.54956C1.9 3.10371 2.02306 2.68485 2.26272 2.35019C2.8338 1.55457 2.69346 1.06554 2.29943 0.801048C2.96658 0.853945 4.48658 1.20588 5.39879 2.16559C5.50891 2.28002 5.60714 2.40741 5.68811 2.54559C5.77123 1.99394 6.02169 1.6269 6.34879 1.65173C6.80004 1.68627 7.22754 2.45167 7.30311 3.36064C7.37975 4.26962 7.07532 4.9778 6.62407 4.94217V4.94109Z" fill="#EF7D00"/>
<path fill-rule="evenodd" clip-rule="evenodd" d="M2.92449 2.26815C2.92449 2.26815 3.99864 2.62332 4.38835 2.88673C4.59994 3.0098 4.73705 3.25378 4.71869 3.52474C4.69494 3.90042 4.38619 4.1865 4.02887 4.16383C3.67154 4.14116 3.40165 3.81838 3.4254 3.4427C3.4362 3.27537 3.50313 3.12639 3.60568 3.01412C3.59273 2.72156 3.28182 2.55855 2.92557 2.26815H2.92449Z" fill="#EF7D00"/>
<path fill-rule="evenodd" clip-rule="evenodd" d="M6.97384 2.48837C6.97384 2.48837 6.44486 2.70104 6.24947 2.8932C6.14367 2.98064 6.07242 3.1782 6.07458 3.41138C6.07782 3.73525 6.2214 4.00729 6.3952 4.01809C6.56901 4.02888 6.70827 3.77519 6.70395 3.45133C6.70287 3.30775 6.67373 3.17388 6.62623 3.06917C6.63918 2.81979 6.79356 2.70644 6.97384 2.48837Z" fill="#EF7D00"/>
<path d="M10.8223 0.115529H12.3941C13.5762 0.115529 14.0696 0.688767 14.0696 1.58371C14.0696 1.75536 14.0577 1.92808 14.0242 2.09973L13.2783 6.40171C13.0721 7.56005 12.406 8.03073 11.3621 8.03073H9.42322L10.8234 0.11445L10.8223 0.115529ZM11.2811 6.72449C11.5445 6.72449 11.6482 6.62085 11.7054 6.26569L12.4632 1.92916C12.4859 1.81473 12.4978 1.73376 12.4978 1.67655C12.4978 1.49303 12.3833 1.42394 12.1998 1.42394H12.1879L11.2476 6.72449H11.2822H11.2811Z" fill="white"/>
<path d="M13.5644 6.60896C13.5644 6.45998 13.5762 6.35634 13.5989 6.19549L14.4021 1.6517C14.5856 0.595908 15.2744 0 16.2611 0C17.3276 0 17.9592 0.585111 17.9592 1.53727C17.9592 1.68624 17.9473 1.78988 17.9246 1.95073L17.1215 6.49453C16.9379 7.55032 16.2384 8.14623 15.2625 8.14623C14.184 8.14623 13.5644 7.56112 13.5644 6.60896ZM15.5259 6.5172L16.3755 1.66358C16.3874 1.60636 16.3874 1.57181 16.3874 1.52539C16.3874 1.39909 16.3301 1.33 16.2157 1.33C16.0894 1.33 16.0322 1.42176 15.9976 1.62795L15.1491 6.48157C15.1373 6.53879 15.1373 6.57334 15.1373 6.61976C15.1373 6.74606 15.1945 6.81515 15.3089 6.81515C15.4352 6.81515 15.4924 6.72339 15.527 6.5172H15.5259Z" fill="white"/>
<path d="M17.4647 6.64352C17.4647 6.51722 17.4766 6.36824 17.4993 6.23006L18.5659 0.11445H20.1603L19.0355 6.51614C19.0236 6.57335 19.0236 6.61977 19.0236 6.65432C19.0236 6.74608 19.0808 6.81517 19.1726 6.81517C19.2762 6.81517 19.3334 6.75795 19.368 6.53989L20.5036 0.11445H22.0755L20.9398 6.52801C20.7563 7.53739 20.0448 8.14625 19.1046 8.14625C18.0714 8.14625 17.4637 7.54926 17.4637 6.64352H17.4647Z" fill="white"/>
<path d="M22.9596 1.42286H21.9956L22.2245 0.11445H25.747L25.5181 1.42286H24.5541L23.3839 8.03182H21.7894L22.9596 1.42286Z" fill="white"/>
<path d="M24.784 6.60896C24.784 6.45998 24.7959 6.35634 24.8186 6.19549L25.6218 1.6517C25.8053 0.595908 26.494 0 27.4807 0C28.5473 0 29.1789 0.585111 29.1789 1.53727C29.1789 1.68624 29.167 1.78988 29.1443 1.95073L28.3411 6.49453C28.1576 7.55032 27.4581 8.14623 26.4822 8.14623C25.4037 8.14623 24.784 7.56112 24.784 6.60896ZM26.7456 6.5172L27.5941 1.66358C27.606 1.60636 27.606 1.57181 27.606 1.52539C27.606 1.39909 27.5487 1.33 27.4343 1.33C27.308 1.33 27.2508 1.42176 27.2163 1.62795L26.3667 6.48157C26.3548 6.53879 26.3548 6.57334 26.3548 6.61976C26.3548 6.74606 26.412 6.81515 26.5264 6.81515C26.6527 6.81515 26.7099 6.72339 26.7445 6.5172H26.7456Z" fill="white"/>
<path d="M29.8201 0.115509H31.3919C32.574 0.115509 33.0674 0.688747 33.0674 1.58369C33.0674 1.75533 33.0555 1.92806 33.022 2.09971L32.9303 2.58119C32.7921 3.34982 32.4715 3.72874 32.0234 3.90039V3.92306C32.3559 4.14112 32.5049 4.4855 32.5049 4.93243C32.5049 5.07061 32.4823 5.23038 32.4585 5.37936L31.977 8.02964H30.3825L30.9104 5.10408C30.9331 4.97777 30.9331 4.90868 30.9331 4.85146C30.9331 4.65607 30.8187 4.59885 30.6352 4.59885H30.6233L30.0155 8.02964H28.421L29.8212 0.113351L29.8201 0.115509ZM30.8986 3.28181C31.1512 3.28181 31.2429 3.17817 31.312 2.78846L31.461 1.92806C31.4837 1.80176 31.4956 1.73266 31.4956 1.67545C31.4956 1.49193 31.3811 1.42283 31.1976 1.42283H31.1857L30.864 3.28181H30.8986Z" fill="white"/>
<path d="M34.1102 6.65536C34.1102 6.51718 34.1221 6.40275 34.1447 6.26565L34.9706 1.63009C35.1541 0.574298 35.7856 0.00106148 36.795 0.00106148C37.8854 0.00106148 38.4467 0.586173 38.4467 1.50378C38.4467 1.63009 38.4348 1.74452 38.4122 1.88271L38.1941 3.09935H36.6342L36.8868 1.69918C36.9094 1.58475 36.9094 1.53833 36.9094 1.48112C36.9094 1.37748 36.8522 1.33214 36.7605 1.33214C36.646 1.33214 36.5888 1.38935 36.5543 1.59555L35.6939 6.49451C35.682 6.55173 35.6712 6.62082 35.6712 6.65536C35.6712 6.76979 35.7403 6.81621 35.8321 6.81621C35.9584 6.81621 36.0037 6.72445 36.0383 6.52906L36.36 4.7165H37.9199L37.5982 6.49451C37.4028 7.58485 36.7831 8.14621 35.7964 8.14621C34.718 8.14621 34.1102 7.57297 34.1102 6.65428V6.65536Z" fill="white"/>
<path d="M37.9415 6.51723H39.4907L39.2154 8.03182H37.6662L37.9415 6.51723Z" fill="white"/>
<path d="M41.0398 0.115529H42.6116C43.7937 0.115529 44.287 0.688767 44.287 1.58371C44.287 1.75536 44.2752 1.92808 44.2406 2.09973L43.4947 6.40171C43.2885 7.56005 42.6224 8.03073 41.5785 8.03073H39.6396L41.0398 0.11445V0.115529ZM41.4986 6.72449C41.7631 6.72449 41.8656 6.62085 41.9228 6.26569L42.6796 1.92916C42.7023 1.81473 42.7142 1.73376 42.7142 1.67655C42.7142 1.49303 42.5997 1.42394 42.4162 1.42394H42.4043L41.464 6.72449H41.4986Z" fill="white"/>
<path d="M43.838 6.51723H45.3871L45.1118 8.03182H43.5627L43.838 6.51723Z" fill="white"/>
<path d="M46.9363 0.115512H50L49.7593 1.42392H48.3019L47.9802 3.25914H49.2648L49.0241 4.56755H47.7394L47.1317 8.03288H45.5372L46.9373 0.116592L46.9363 0.115512Z" fill="white"/>
<path d="M48.0946 6.51723H49.6437L49.3685 8.03182H47.8193L48.0946 6.51723Z" fill="white"/>
</svg>
