<svg width="20" height="21" viewBox="0 0 20 21" fill="none" xmlns="http://www.w3.org/2000/svg">
<path fill-rule="evenodd" clip-rule="evenodd" d="M11.6264 0C17.1023 0 20.7882 4.4816 19.8558 10.0065C18.9246 15.5328 13.7272 20.0144 8.25131 20.0144C4.4197 20.0144 1.46506 17.8194 0.354659 14.6094C1.62498 14.6055 2.89402 14.6158 4.16305 14.6455C6.8288 14.7061 8.99287 12.6388 8.99287 10.1626C8.99287 7.97919 7.30985 6.15946 5.08259 5.76095C4.74985 5.70163 4.49192 5.67971 4.16434 5.67971H1.72687C3.89222 2.32012 7.68643 0 11.6264 0ZM5.2812 16.3466C6.78624 16.3401 8.29258 16.3827 9.79375 16.3904L10.9712 16.3969C14.7667 16.4175 17.8452 13.4912 17.8452 9.90853C17.8452 6.89973 15.6746 4.3694 12.7316 3.63429C12.2261 3.5079 11.7102 3.41891 11.2085 3.41891H5.2812V3.54143C8.4396 4.12694 10.8242 6.75529 10.8242 9.90853C10.8242 13.0618 8.44089 15.6901 5.2812 16.2756V16.3466ZM0.328866 14.5281C2.46714 14.0664 4.06117 12.288 4.06117 10.1626C4.06117 8.42025 2.99074 6.91134 1.42637 6.16849C1.17489 6.60182 0.950486 7.04933 0.755746 7.50975C1.66754 8.08365 2.26853 9.06251 2.26853 10.1742C2.26853 11.5709 1.32062 12.7574 0 13.1946C0.0760905 13.655 0.187002 14.1 0.328866 14.5268V14.5281Z" fill="#EF7D00"/>
</svg>
