<svg width="12" height="13" viewBox="0 0 12 13" fill="none" xmlns="http://www.w3.org/2000/svg">
<path d="M3.23343 0.767253L10.1935 1.97294L11.3444 3.23343L11.8924 5.53519L11.7828 6.74087L11.5088 7.89175L9.75508 10.0839H2.8498L2.52098 5.53519L3.23343 0.767253Z" fill="white"/>
<path fill-rule="evenodd" clip-rule="evenodd" d="M11.5302 3.47847C10.6675 1.37893 8.04651 -0.247698 5.30948 0.0312016C5.31468 0.0329339 5.76681 0.292778 5.88114 0.67215C4.49357 0.178446 2.78033 0.221753 1.68552 1.13467C2.83577 0.888687 3.1112 2.14807 1.98174 3.00729C0.3326 4.25973 0.323939 5.3632 0.322207 5.36494C0.921581 5.67675 1.33213 6.30384 1.33387 7.02794V7.0314C1.33387 7.87849 0.772603 8.59566 0 8.82953C0.471184 11.1993 2.41655 12.8935 5.00287 12.8935C5.71657 12.8935 6.42162 12.7636 7.09201 12.528C9.45313 11.6947 11.3968 9.52417 11.8731 6.95518C11.887 6.88242 11.8957 6.8114 11.9095 6.74038C12.2491 4.93879 11.5232 3.46807 11.5284 3.4802L11.5302 3.47847ZM10.6294 7.87676C10.5098 7.8681 10.392 7.82653 10.2777 7.75897C10.3712 8.52811 9.70085 9.68874 8.58698 9.73552C9.07549 9.1604 8.90226 8.03787 8.63202 7.86984C8.08635 8.38953 7.34493 8.71693 6.51343 8.73771C4.72397 8.78275 3.19089 7.39865 3.09041 5.64384C3.04884 4.9284 3.24632 4.25627 3.63089 3.71926C4.54727 2.44255 4.32208 1.65783 3.68979 1.23341C4.76035 1.3183 7.19942 1.88302 8.66321 3.42303C8.8399 3.60666 8.99754 3.81107 9.12746 4.0328C9.26085 3.1476 9.66274 2.55862 10.1876 2.59846C10.9117 2.6539 11.5977 3.88209 11.719 5.34069C11.842 6.79928 11.3535 7.93566 10.6294 7.8785V7.87676Z" fill="#EF7D00"/>
<path fill-rule="evenodd" clip-rule="evenodd" d="M4.69281 3.58762C4.69281 3.58762 6.41644 4.15754 7.0418 4.58022C7.38133 4.7777 7.60133 5.1692 7.57188 5.60401C7.53377 6.20685 7.03833 6.66591 6.46494 6.62953C5.89155 6.59315 5.45848 6.07519 5.49659 5.47235C5.51391 5.20385 5.62132 4.96479 5.78588 4.78463C5.7651 4.31518 5.2662 4.0536 4.69454 3.58762H4.69281Z" fill="#EF7D00"/>
<path fill-rule="evenodd" clip-rule="evenodd" d="M11.1906 3.94099C11.1906 3.94099 10.3418 4.28225 10.0282 4.5906C9.85848 4.73092 9.74415 5.04793 9.74761 5.42211C9.75281 5.94179 9.9832 6.37833 10.2621 6.39565C10.541 6.41298 10.7645 6.00589 10.7575 5.4862C10.7558 5.25581 10.709 5.041 10.6328 4.87297C10.6536 4.47281 10.9013 4.29091 11.1906 3.94099Z" fill="#EF7D00"/>
</svg>
