<svg width="246" height="40" viewBox="0 0 246 40" fill="none" xmlns="http://www.w3.org/2000/svg">
<path fill-rule="evenodd" clip-rule="evenodd" d="M35.2822 10.8035C32.6424 4.37893 24.6223 -0.59853 16.247 0.2549C16.2629 0.260201 17.6464 1.05532 17.9963 2.2162C13.7503 0.705468 8.5078 0.837987 5.15769 3.63151C8.67743 2.8788 9.52025 6.73249 6.06413 9.3617C1.01775 13.1942 0.991252 16.5708 0.985951 16.5761C2.82003 17.5302 4.07632 19.4491 4.08162 21.6649V21.6755C4.08162 24.2676 2.36416 26.4621 0 27.1777C1.44182 34.4292 7.39463 39.6134 15.3087 39.6134C17.4927 39.6134 19.6501 39.2159 21.7015 38.4949C28.9265 35.9453 34.874 29.3033 36.3318 21.4422C36.3742 21.2196 36.4007 21.0023 36.4431 20.7849C37.482 15.2721 35.261 10.7717 35.2769 10.8088L35.2822 10.8035ZM32.5258 24.2623C32.16 24.2358 31.7996 24.1085 31.4497 23.9018C31.736 26.2554 29.6845 29.8069 26.2761 29.95C27.7709 28.1902 27.2409 24.7553 26.4139 24.2411C24.7442 25.8313 22.4754 26.8332 19.931 26.8968C14.4553 27.0346 9.76409 22.7993 9.45665 17.4295C9.32943 15.2403 9.93372 13.1836 11.1105 11.5403C13.9146 7.63362 13.2255 5.23236 11.2907 3.93366C14.5666 4.1934 22.0302 5.92147 26.5094 10.6339C27.05 11.1958 27.5324 11.8213 27.93 12.4998C28.3381 9.79105 29.5679 7.98879 31.1741 8.11071C33.3898 8.28033 35.4889 12.0386 35.86 16.5019C36.2363 20.9652 34.7415 24.4425 32.5258 24.2676V24.2623Z" fill="#EF7D00"/>
<path fill-rule="evenodd" clip-rule="evenodd" d="M14.3589 11.1373C14.3589 11.1373 19.6332 12.8813 21.5468 14.1747C22.5857 14.779 23.2589 15.977 23.1688 17.3075C23.0522 19.1522 21.5362 20.5569 19.7816 20.4456C18.027 20.3342 16.7018 18.7493 16.8185 16.9046C16.8715 16.083 17.2001 15.3515 17.7037 14.8002C17.6401 13.3637 16.1135 12.5632 14.3642 11.1373H14.3589Z" fill="#EF7D00"/>
<path fill-rule="evenodd" clip-rule="evenodd" d="M34.2439 12.2186C34.2439 12.2186 31.6465 13.2629 30.6871 14.2064C30.1676 14.6358 29.8178 15.6059 29.8284 16.7508C29.8443 18.3411 30.5493 19.6769 31.4027 19.7299C32.2561 19.7829 32.9399 18.5372 32.9187 16.947C32.9134 16.2419 32.7703 15.5846 32.5371 15.0705C32.6007 13.846 33.3587 13.2894 34.2439 12.2186Z" fill="#EF7D00"/>
<path d="M53.1404 0.566943H60.8583C66.6627 0.566943 69.0852 3.38168 69.0852 7.77605C69.0852 8.61888 69.0269 9.46701 68.8626 10.3098L65.1997 31.4336C64.1872 37.1213 60.9166 39.4325 55.7908 39.4325H46.2705L53.1457 0.561646L53.1404 0.566943ZM55.3932 33.0185C56.6866 33.0185 57.1955 32.5096 57.4764 30.7657L61.1976 9.47231C61.3089 8.91042 61.3672 8.51286 61.3672 8.23192C61.3672 7.33078 60.8053 6.99153 59.9042 6.99153H59.8459L55.2289 33.0185H55.3985H55.3932Z" fill="#1D1D1B"/>
<path d="M66.6045 32.4516C66.6045 31.72 66.6628 31.2112 66.7741 30.4213L70.7179 8.11024C71.6191 2.92605 75.001 0 79.8459 0C85.0831 0 88.1841 2.87303 88.1841 7.54835C88.1841 8.27986 88.1258 8.78874 88.0145 9.57856L84.0707 31.8897C83.1695 37.0739 79.7346 39.9999 74.9427 39.9999C69.6472 39.9999 66.6045 37.1269 66.6045 32.4516ZM76.2361 32.001L80.4078 8.16855C80.4661 7.88761 80.4661 7.71797 80.4661 7.49004C80.4661 6.86984 80.1852 6.53059 79.6233 6.53059C79.0031 6.53059 78.7221 6.98117 78.5525 7.99362L74.3861 31.8261C74.3278 32.107 74.3278 32.2766 74.3278 32.5046C74.3278 33.1248 74.6087 33.464 75.1706 33.464C75.7908 33.464 76.0717 33.0134 76.2414 32.001H76.2361Z" fill="#1D1D1B"/>
<path d="M85.7568 32.6216C85.7568 32.0014 85.8151 31.2698 85.9264 30.5913L91.1636 0.562256H98.9929L93.4694 31.9961C93.4111 32.277 93.4111 32.5049 93.4111 32.6746C93.4111 33.1251 93.6921 33.4644 94.1426 33.4644C94.6515 33.4644 94.9325 33.1834 95.1021 32.1127L100.679 0.562256H108.397L102.82 32.0544C101.919 37.0106 98.4257 40.0003 93.8087 40.0003C88.7358 40.0003 85.7515 37.0689 85.7515 32.6216H85.7568Z" fill="#1D1D1B"/>
<path d="M112.738 6.98683H108.004L109.128 0.562256H126.424L125.301 6.98683H120.567L114.821 39.4384H106.992L112.738 6.98683Z" fill="#1D1D1B"/>
<path d="M121.696 32.4516C121.696 31.72 121.754 31.2112 121.865 30.4213L125.809 8.11024C126.71 2.92605 130.092 0 134.937 0C140.174 0 143.275 2.87303 143.275 7.54835C143.275 8.27986 143.217 8.78874 143.106 9.57856L139.162 31.8897C138.261 37.0739 134.826 39.9999 130.034 39.9999C124.738 39.9999 121.696 37.1269 121.696 32.4516ZM131.327 32.001L135.494 8.16855C135.552 7.88761 135.552 7.71797 135.552 7.49004C135.552 6.86984 135.271 6.53059 134.709 6.53059C134.089 6.53059 133.808 6.98117 133.639 7.99362L129.467 31.8261C129.408 32.107 129.408 32.2766 129.408 32.5046C129.408 33.1248 129.689 33.464 130.251 33.464C130.872 33.464 131.152 33.0134 131.322 32.001H131.327Z" fill="#1D1D1B"/>
<path d="M146.426 0.567481H154.143C159.948 0.567481 162.37 3.38221 162.37 7.77659C162.37 8.61941 162.312 9.46754 162.148 10.3104L161.697 12.6745C161.019 16.4487 159.444 18.3093 157.244 19.1521V19.2634C158.877 20.3342 159.609 22.0252 159.609 24.2197C159.609 24.8982 159.497 25.6827 159.381 26.4142L157.017 39.4277H149.187L151.779 25.0625C151.891 24.4423 151.891 24.1031 151.891 23.8221C151.891 22.8627 151.329 22.5818 150.428 22.5818H150.369L147.385 39.4277H139.556L146.431 0.556885L146.426 0.567481ZM151.721 16.1148C152.961 16.1148 153.412 15.6059 153.751 13.6923L154.483 9.46754C154.594 8.84735 154.652 8.50809 154.652 8.22715C154.652 7.32601 154.09 6.98676 153.189 6.98676H153.131L151.551 16.1148H151.721Z" fill="#1D1D1B"/>
<path d="M167.49 32.6796C167.49 32.0011 167.548 31.4392 167.659 30.766L171.714 8.00429C172.616 2.8201 175.717 0.00537109 180.673 0.00537109C186.027 0.00537109 188.783 2.87841 188.783 7.3841C188.783 8.00429 188.725 8.56618 188.613 9.24469L187.543 15.2187H179.883L181.123 8.34354C181.235 7.78166 181.235 7.55373 181.235 7.27278C181.235 6.76391 180.954 6.54127 180.503 6.54127C179.941 6.54127 179.66 6.82221 179.491 7.83467L175.266 31.8897C175.208 32.1707 175.155 32.5099 175.155 32.6796C175.155 33.2414 175.494 33.4694 175.945 33.4694C176.565 33.4694 176.787 33.0188 176.957 32.0594L178.537 23.1593H186.196L184.617 31.8897C183.657 37.2436 180.615 40 175.77 40C170.474 40 167.49 37.1852 167.49 32.6743V32.6796Z" fill="#1D1D1B"/>
<path d="M186.303 32.001H193.91L192.558 39.438H184.951L186.303 32.001Z" fill="#1D1D1B"/>
<path d="M201.515 0.566943H209.233C215.037 0.566943 217.46 3.38168 217.46 7.77605C217.46 8.61888 217.401 9.46701 217.232 10.3098L213.569 31.4336C212.556 37.1213 209.286 39.4325 204.16 39.4325H194.64L201.515 0.561646V0.566943ZM203.768 33.0185C205.066 33.0185 205.57 32.5096 205.851 30.7657L209.567 9.47231C209.678 8.91042 209.736 8.51286 209.736 8.23192C209.736 7.33078 209.174 6.99153 208.273 6.99153H208.215L203.598 33.0185H203.768Z" fill="#1D1D1B"/>
<path d="M215.256 32.001H222.863L221.511 39.438H213.904L215.256 32.001Z" fill="#1D1D1B"/>
<path d="M230.468 0.567017H245.511L244.329 6.9916H237.173L235.593 16.003H241.901L240.719 22.4276H234.411L231.427 39.4432H223.598L230.473 0.572323L230.468 0.567017Z" fill="#1D1D1B"/>
<path d="M236.155 32.001H243.762L242.41 39.438H234.804L236.155 32.001Z" fill="#1D1D1B"/>
</svg>
