<svg width="652" height="700" viewBox="0 0 652 700" fill="none" xmlns="http://www.w3.org/2000/svg">
<path fill-rule="evenodd" clip-rule="evenodd" d="M625.983 188.849C579.147 74.8632 436.853 -13.4478 288.257 1.69396C288.539 1.78801 313.086 15.8952 319.293 36.4917C243.96 9.68801 150.947 12.0392 91.5086 61.6025C153.956 48.2476 168.91 116.621 107.591 163.268C18.0572 231.265 17.587 291.173 17.4929 291.267C50.0335 308.196 72.3229 342.242 72.4169 381.554V381.742C72.4169 427.731 41.9454 466.667 0 479.363C25.581 608.021 131.197 700 271.61 700C310.358 700 348.636 692.946 385.032 680.156C513.22 634.919 618.741 517.077 644.605 377.603C645.357 373.653 645.827 369.798 646.58 365.942C665.013 268.132 625.607 188.285 625.889 188.943L625.983 188.849ZM577.078 427.637C570.589 427.167 564.194 424.91 557.986 421.242C563.065 462.999 526.668 526.011 466.196 528.551C492.717 497.327 483.312 436.384 468.641 427.261C439.016 455.475 398.763 473.25 353.62 474.379C256.469 476.824 173.236 401.68 167.782 306.409C165.524 267.568 176.246 231.077 197.124 201.922C246.876 132.609 234.65 90.005 200.322 66.9633C258.444 71.5716 390.863 102.231 470.334 185.84C479.927 195.809 488.485 206.906 495.539 218.945C502.78 170.886 524.599 138.91 553.096 141.073C592.408 144.083 629.651 210.763 636.234 289.951C642.912 369.139 616.39 430.835 577.078 427.731V427.637Z" fill="#333333" fill-opacity="0.02"/>
<path fill-rule="evenodd" clip-rule="evenodd" d="M254.778 194.775C254.778 194.775 348.355 225.717 382.307 248.665C400.74 259.386 412.684 280.641 411.085 304.247C409.016 336.976 382.119 361.898 350.989 359.923C319.859 357.948 296.347 329.828 298.416 297.099C299.356 282.522 305.187 269.543 314.122 259.762C312.993 234.275 285.907 220.074 254.872 194.775H254.778Z" fill="#333333" fill-opacity="0.02"/>
<path fill-rule="evenodd" clip-rule="evenodd" d="M607.549 213.961C607.549 213.961 561.466 232.488 544.443 249.229C535.226 256.847 529.019 274.058 529.207 294.372C529.489 322.586 541.998 346.286 557.139 347.227C572.281 348.167 584.413 326.066 584.037 297.852C583.943 285.343 581.404 273.681 577.266 264.559C578.394 242.834 591.843 232.959 607.549 213.961Z" fill="#333333" fill-opacity="0.02"/>
</svg>
