<svg width="390" height="40" viewBox="0 0 390 40" fill="none" xmlns="http://www.w3.org/2000/svg">
<rect x="0.25" y="0.25" width="389.5" height="39.5" rx="1.75" fill="white"/>
<path fill-rule="evenodd" clip-rule="evenodd" d="M25.64 20.2044C25.64 19.5663 25.5827 18.9526 25.4764 18.3635H17V21.8449H21.8436C21.635 22.9699 21.0009 23.9231 20.0477 24.5613V26.8194H22.9564C24.6582 25.2526 25.64 22.9453 25.64 20.2044Z" fill="#4285F4"/>
<path fill-rule="evenodd" clip-rule="evenodd" d="M17 29C19.43 29 21.4673 28.1941 22.9564 26.8195L20.0477 24.5613C19.2418 25.1013 18.2109 25.4204 17 25.4204C14.6559 25.4204 12.6718 23.8372 11.9641 21.71H8.95728V24.0418C10.4382 26.9831 13.4818 29 17 29Z" fill="#34A853"/>
<path fill-rule="evenodd" clip-rule="evenodd" d="M11.9641 21.7101C11.7841 21.1701 11.6818 20.5933 11.6818 20.0001C11.6818 19.4069 11.7841 18.8301 11.9641 18.2901V15.9583H8.95727C8.34773 17.1733 8 18.5478 8 20.0001C8 21.4523 8.34773 22.8269 8.95727 24.0419L11.9641 21.7101Z" fill="#FBBC05"/>
<path fill-rule="evenodd" clip-rule="evenodd" d="M17 14.5795C18.3214 14.5795 19.5077 15.0336 20.4405 15.9255L23.0218 13.3441C21.4632 11.8918 19.4259 11 17 11C13.4818 11 10.4382 13.0168 8.95728 15.9582L11.9641 18.29C12.6718 16.1627 14.6559 14.5795 17 14.5795Z" fill="#EA4335"/>
<path d="M56.2139 22.4365C56.2139 21.999 56.0589 21.6618 55.749 21.4248C55.4437 21.1878 54.89 20.9486 54.0879 20.707C53.2858 20.4655 52.6478 20.1966 52.1738 19.9004C51.2669 19.3307 50.8135 18.5879 50.8135 17.6719C50.8135 16.8698 51.1393 16.209 51.791 15.6895C52.4473 15.1699 53.2972 14.9102 54.3408 14.9102C55.0335 14.9102 55.651 15.0378 56.1934 15.293C56.7357 15.5482 57.1618 15.9128 57.4717 16.3867C57.7816 16.8561 57.9365 17.3779 57.9365 17.9521H56.2139C56.2139 17.4326 56.0498 17.027 55.7217 16.7354C55.3981 16.4391 54.9333 16.291 54.3271 16.291C53.762 16.291 53.3223 16.4118 53.0078 16.6533C52.6979 16.8949 52.543 17.2321 52.543 17.665C52.543 18.0296 52.7116 18.335 53.0488 18.5811C53.3861 18.8226 53.9421 19.0596 54.7168 19.292C55.4915 19.5199 56.1136 19.7819 56.583 20.0781C57.0524 20.3698 57.3965 20.707 57.6152 21.0898C57.834 21.4681 57.9434 21.9124 57.9434 22.4229C57.9434 23.2523 57.6243 23.9131 56.9863 24.4053C56.3529 24.8929 55.4915 25.1367 54.4023 25.1367C53.6823 25.1367 53.0192 25.0046 52.4131 24.7402C51.8115 24.4714 51.3421 24.1022 51.0049 23.6328C50.6722 23.1634 50.5059 22.6165 50.5059 21.9922H52.2354C52.2354 22.5573 52.4222 22.9948 52.7959 23.3047C53.1696 23.6146 53.7051 23.7695 54.4023 23.7695C55.0039 23.7695 55.4551 23.6488 55.7559 23.4072C56.0612 23.1611 56.2139 22.8376 56.2139 22.4365ZM61.0674 25H59.4062V17.6035H61.0674V25ZM59.3037 15.6826C59.3037 15.4274 59.3835 15.2155 59.543 15.0469C59.707 14.8783 59.9395 14.7939 60.2402 14.7939C60.541 14.7939 60.7734 14.8783 60.9375 15.0469C61.1016 15.2155 61.1836 15.4274 61.1836 15.6826C61.1836 15.9333 61.1016 16.1429 60.9375 16.3115C60.7734 16.4756 60.541 16.5576 60.2402 16.5576C59.9395 16.5576 59.707 16.4756 59.543 16.3115C59.3835 16.1429 59.3037 15.9333 59.3037 15.6826ZM62.5918 21.2471C62.5918 20.0986 62.8607 19.1826 63.3984 18.499C63.9408 17.8109 64.6585 17.4668 65.5518 17.4668C66.3949 17.4668 67.0579 17.7607 67.541 18.3486L67.6162 17.6035H69.1133V24.7744C69.1133 25.7451 68.8102 26.5107 68.2041 27.0713C67.6025 27.6318 66.7891 27.9121 65.7637 27.9121C65.2214 27.9121 64.6904 27.7982 64.1709 27.5703C63.6559 27.347 63.264 27.0531 62.9951 26.6885L63.7812 25.6904C64.2917 26.2965 64.9206 26.5996 65.668 26.5996C66.2194 26.5996 66.6546 26.4492 66.9736 26.1484C67.2926 25.8522 67.4521 25.4147 67.4521 24.8359V24.3369C66.9736 24.8701 66.3356 25.1367 65.5381 25.1367C64.6722 25.1367 63.9635 24.7926 63.4121 24.1045C62.8652 23.4163 62.5918 22.4639 62.5918 21.2471ZM64.2461 21.3906C64.2461 22.1335 64.3965 22.7191 64.6973 23.1475C65.0026 23.5713 65.4242 23.7832 65.9619 23.7832C66.6318 23.7832 67.1286 23.4961 67.4521 22.9219V19.668C67.1377 19.1074 66.6455 18.8271 65.9756 18.8271C65.4287 18.8271 65.0026 19.0436 64.6973 19.4766C64.3965 19.9095 64.2461 20.5475 64.2461 21.3906ZM72.3672 17.6035L72.415 18.458C72.9619 17.7972 73.6797 17.4668 74.5684 17.4668C76.1087 17.4668 76.8926 18.3486 76.9199 20.1123V25H75.2588V20.208C75.2588 19.7386 75.1562 19.3923 74.9512 19.1689C74.7507 18.9411 74.4202 18.8271 73.96 18.8271C73.29 18.8271 72.791 19.1302 72.4629 19.7363V25H70.8018V17.6035H72.3672ZM83.8721 25H82.2109V17.6035H83.8721V25ZM82.1084 15.6826C82.1084 15.4274 82.1882 15.2155 82.3477 15.0469C82.5117 14.8783 82.7441 14.7939 83.0449 14.7939C83.3457 14.7939 83.5781 14.8783 83.7422 15.0469C83.9062 15.2155 83.9883 15.4274 83.9883 15.6826C83.9883 15.9333 83.9062 16.1429 83.7422 16.3115C83.5781 16.4756 83.3457 16.5576 83.0449 16.5576C82.7441 16.5576 82.5117 16.4756 82.3477 16.3115C82.1882 16.1429 82.1084 15.9333 82.1084 15.6826ZM87.2285 17.6035L87.2764 18.458C87.8232 17.7972 88.541 17.4668 89.4297 17.4668C90.9701 17.4668 91.7539 18.3486 91.7812 20.1123V25H90.1201V20.208C90.1201 19.7386 90.0176 19.3923 89.8125 19.1689C89.612 18.9411 89.2816 18.8271 88.8213 18.8271C88.1514 18.8271 87.6523 19.1302 87.3242 19.7363V25H85.6631V17.6035H87.2285ZM103.464 22.71L104.64 17.6035H106.26L104.243 25H102.876L101.29 19.9209L99.7314 25H98.3643L96.3408 17.6035H97.9609L99.1572 22.6553L100.675 17.6035H101.926L103.464 22.71ZM109.138 25H107.477V17.6035H109.138V25ZM107.374 15.6826C107.374 15.4274 107.454 15.2155 107.613 15.0469C107.777 14.8783 108.01 14.7939 108.311 14.7939C108.611 14.7939 108.844 14.8783 109.008 15.0469C109.172 15.2155 109.254 15.4274 109.254 15.6826C109.254 15.9333 109.172 16.1429 109.008 16.3115C108.844 16.4756 108.611 16.5576 108.311 16.5576C108.01 16.5576 107.777 16.4756 107.613 16.3115C107.454 16.1429 107.374 15.9333 107.374 15.6826ZM113.034 15.8057V17.6035H114.34V18.834H113.034V22.9629C113.034 23.2454 113.089 23.4505 113.198 23.5781C113.312 23.7012 113.513 23.7627 113.8 23.7627C113.991 23.7627 114.185 23.7399 114.381 23.6943V24.9795C114.003 25.0843 113.638 25.1367 113.287 25.1367C112.011 25.1367 111.373 24.4326 111.373 23.0244V18.834H110.156V17.6035H111.373V15.8057H113.034ZM117.252 18.4102C117.794 17.7812 118.48 17.4668 119.31 17.4668C120.886 17.4668 121.686 18.3669 121.709 20.167V25H120.048V20.2285C120.048 19.7181 119.936 19.3581 119.713 19.1484C119.494 18.9342 119.171 18.8271 118.742 18.8271C118.077 18.8271 117.58 19.1234 117.252 19.7158V25H115.591V14.5H117.252V18.4102ZM134.67 23.708C134.31 24.1774 133.811 24.5329 133.173 24.7744C132.535 25.016 131.81 25.1367 130.999 25.1367C130.165 25.1367 129.427 24.9476 128.784 24.5693C128.142 24.1911 127.645 23.651 127.294 22.9492C126.948 22.2428 126.768 21.4202 126.754 20.4814V19.7021C126.754 18.1982 127.114 17.0247 127.834 16.1816C128.554 15.334 129.559 14.9102 130.849 14.9102C131.956 14.9102 132.836 15.1836 133.487 15.7305C134.139 16.2773 134.531 17.0658 134.663 18.0957H132.968C132.776 16.8971 132.081 16.2979 130.883 16.2979C130.108 16.2979 129.518 16.5781 129.112 17.1387C128.711 17.6947 128.504 18.5127 128.49 19.5928V20.3584C128.49 21.4339 128.716 22.2702 129.167 22.8672C129.623 23.4596 130.254 23.7559 131.061 23.7559C131.945 23.7559 132.574 23.5553 132.947 23.1543V21.2061H130.896V19.8936H134.67V23.708ZM136.099 21.2334C136.099 20.5088 136.242 19.8571 136.529 19.2783C136.816 18.695 137.22 18.2484 137.739 17.9385C138.259 17.624 138.856 17.4668 139.53 17.4668C140.528 17.4668 141.337 17.7881 141.957 18.4307C142.581 19.0732 142.919 19.9255 142.969 20.9873L142.976 21.377C142.976 22.1061 142.834 22.7578 142.552 23.332C142.274 23.9062 141.873 24.3506 141.349 24.665C140.829 24.9795 140.228 25.1367 139.544 25.1367C138.5 25.1367 137.664 24.7904 137.035 24.0977C136.411 23.4004 136.099 22.473 136.099 21.3154V21.2334ZM137.76 21.377C137.76 22.138 137.917 22.735 138.231 23.168C138.546 23.5964 138.983 23.8105 139.544 23.8105C140.104 23.8105 140.54 23.5918 140.85 23.1543C141.164 22.7168 141.321 22.0765 141.321 21.2334C141.321 20.486 141.16 19.8936 140.836 19.4561C140.517 19.0186 140.082 18.7998 139.53 18.7998C138.988 18.7998 138.557 19.0163 138.238 19.4492C137.919 19.8776 137.76 20.5202 137.76 21.377ZM144.069 21.2334C144.069 20.5088 144.213 19.8571 144.5 19.2783C144.787 18.695 145.19 18.2484 145.71 17.9385C146.229 17.624 146.826 17.4668 147.501 17.4668C148.499 17.4668 149.308 17.7881 149.928 18.4307C150.552 19.0732 150.889 19.9255 150.939 20.9873L150.946 21.377C150.946 22.1061 150.805 22.7578 150.522 23.332C150.244 23.9062 149.843 24.3506 149.319 24.665C148.8 24.9795 148.198 25.1367 147.515 25.1367C146.471 25.1367 145.635 24.7904 145.006 24.0977C144.382 23.4004 144.069 22.473 144.069 21.3154V21.2334ZM145.73 21.377C145.73 22.138 145.888 22.735 146.202 23.168C146.517 23.5964 146.954 23.8105 147.515 23.8105C148.075 23.8105 148.51 23.5918 148.82 23.1543C149.135 22.7168 149.292 22.0765 149.292 21.2334C149.292 20.486 149.13 19.8936 148.807 19.4561C148.488 19.0186 148.052 18.7998 147.501 18.7998C146.959 18.7998 146.528 19.0163 146.209 19.4492C145.89 19.8776 145.73 20.5202 145.73 21.377ZM152.061 21.2471C152.061 20.0986 152.329 19.1826 152.867 18.499C153.41 17.8109 154.127 17.4668 155.021 17.4668C155.864 17.4668 156.527 17.7607 157.01 18.3486L157.085 17.6035H158.582V24.7744C158.582 25.7451 158.279 26.5107 157.673 27.0713C157.071 27.6318 156.258 27.9121 155.232 27.9121C154.69 27.9121 154.159 27.7982 153.64 27.5703C153.125 27.347 152.733 27.0531 152.464 26.6885L153.25 25.6904C153.76 26.2965 154.389 26.5996 155.137 26.5996C155.688 26.5996 156.123 26.4492 156.442 26.1484C156.761 25.8522 156.921 25.4147 156.921 24.8359V24.3369C156.442 24.8701 155.804 25.1367 155.007 25.1367C154.141 25.1367 153.432 24.7926 152.881 24.1045C152.334 23.4163 152.061 22.4639 152.061 21.2471ZM153.715 21.3906C153.715 22.1335 153.865 22.7191 154.166 23.1475C154.471 23.5713 154.893 23.7832 155.431 23.7832C156.101 23.7832 156.597 23.4961 156.921 22.9219V19.668C156.606 19.1074 156.114 18.8271 155.444 18.8271C154.897 18.8271 154.471 19.0436 154.166 19.4766C153.865 19.9095 153.715 20.5475 153.715 21.3906ZM162.062 25H160.4V14.5H162.062V25ZM167.134 25.1367C166.081 25.1367 165.227 24.8063 164.57 24.1455C163.919 23.4801 163.593 22.596 163.593 21.4932V21.2881C163.593 20.5498 163.734 19.8913 164.017 19.3125C164.304 18.7292 164.705 18.2757 165.22 17.9521C165.735 17.6286 166.309 17.4668 166.942 17.4668C167.95 17.4668 168.727 17.7881 169.273 18.4307C169.825 19.0732 170.101 19.9824 170.101 21.1582V21.8281H165.268C165.318 22.4388 165.521 22.9219 165.876 23.2773C166.236 23.6328 166.687 23.8105 167.229 23.8105C167.991 23.8105 168.61 23.5029 169.089 22.8877L169.984 23.7422C169.688 24.1842 169.292 24.5283 168.795 24.7744C168.303 25.016 167.749 25.1367 167.134 25.1367ZM166.936 18.7998C166.48 18.7998 166.111 18.9593 165.828 19.2783C165.55 19.5973 165.372 20.0417 165.295 20.6113H168.46V20.4883C168.424 19.9323 168.275 19.513 168.016 19.2305C167.756 18.9434 167.396 18.7998 166.936 18.7998Z" fill="black" fill-opacity="0.54"/>
<rect x="0.25" y="0.25" width="389.5" height="39.5" rx="1.75" stroke="#4285F4" stroke-width="0.5"/>
</svg>
