<svg width="258" height="42" viewBox="0 0 258 42" fill="none" xmlns="http://www.w3.org/2000/svg">
<path fill-rule="evenodd" clip-rule="evenodd" d="M37.0463 11.3434C34.2745 4.59759 25.8534 -0.628737 17.0593 0.267365C17.076 0.272931 18.5287 1.10781 18.8961 2.32673C14.4378 0.74046 8.93319 0.879606 5.41557 3.81281C9.1113 3.02246 9.99627 7.06884 6.36733 9.8295C1.06864 13.8536 1.04081 17.399 1.03525 17.4046C2.96103 18.4065 4.28014 20.4213 4.28571 22.7478V22.759C4.28571 25.4807 2.48237 27.7849 0 28.5363C1.51391 36.1504 7.76436 41.5938 16.0742 41.5938C18.3673 41.5938 20.6326 41.1764 22.7866 40.4194C30.3728 37.7422 36.6177 30.7682 38.1483 22.5141C38.1929 22.2803 38.2207 22.0521 38.2652 21.8239C39.3561 16.0354 37.024 11.31 37.0407 11.349L37.0463 11.3434ZM34.1521 25.4751C33.768 25.4473 33.3895 25.3137 33.0222 25.0966C33.3227 27.5679 31.1688 31.297 27.5899 31.4473C29.1595 29.5994 28.6029 25.9927 27.7346 25.4528C25.9814 27.1226 23.5992 28.1745 20.9276 28.2413C15.1781 28.386 10.2523 23.9389 9.92948 18.3007C9.7959 16.002 10.4304 13.8425 11.666 12.1171C14.6104 8.01503 13.8868 5.4937 11.8553 4.13007C15.295 4.40279 23.1317 6.21726 27.8348 11.1653C28.4025 11.7553 28.909 12.412 29.3265 13.1245C29.755 10.2803 31.0463 8.38795 32.7328 8.51596C35.0593 8.69407 37.2634 12.6403 37.653 17.3267C38.0482 22.0131 36.4786 25.6643 34.1521 25.4807V25.4751Z" fill="#EF7D00"/>
<path fill-rule="evenodd" clip-rule="evenodd" d="M15.0771 11.6941C15.0771 11.6941 20.6152 13.5253 22.6244 14.8833C23.7153 15.5178 24.4222 16.7757 24.3276 18.1727C24.2051 20.1097 22.6133 21.5846 20.771 21.4677C18.9287 21.3509 17.5373 19.6866 17.6597 17.7497C17.7154 16.887 18.0604 16.1189 18.5892 15.5401C18.5224 14.0317 16.9194 13.1913 15.0827 11.6941H15.0771Z" fill="#EF7D00"/>
<path fill-rule="evenodd" clip-rule="evenodd" d="M35.9559 12.8296C35.9559 12.8296 33.2287 13.9261 32.2213 14.9168C31.6758 15.3676 31.3085 16.3862 31.3196 17.5884C31.3363 19.2582 32.0765 20.6607 32.9726 20.7164C33.8687 20.7721 34.5867 19.4641 34.5645 17.7943C34.5589 17.0541 34.4086 16.3639 34.1637 15.824C34.2305 14.5383 35.0264 13.9539 35.9559 12.8296Z" fill="#EF7D00"/>
<path d="M55.7963 0.595529H63.9002C69.9948 0.595529 72.5384 3.551 72.5384 8.16509C72.5384 9.05006 72.4772 9.94059 72.3047 10.8256L68.4587 33.0055C67.3956 38.9776 63.9615 41.4043 58.5793 41.4043H48.583L55.8019 0.589966L55.7963 0.595529ZM58.1618 34.6697C59.5199 34.6697 60.0542 34.1353 60.3492 32.3042L64.2564 9.94616C64.3733 9.35618 64.4346 8.93874 64.4346 8.64375C64.4346 7.69756 63.8446 7.34134 62.8984 7.34134H62.8372L57.9893 34.6697H58.1674H58.1618Z" fill="#1D1D1B"/>
<path d="M69.9336 34.0741C69.9336 33.3061 69.9948 32.7717 70.1117 31.9424L74.2527 8.51575C75.1989 3.07235 78.7499 0 83.8371 0C89.3361 0 92.5922 3.01669 92.5922 7.92577C92.5922 8.69385 92.5309 9.22818 92.4141 10.0575L88.2731 33.4842C87.3269 38.9276 83.7202 41.9999 78.6887 41.9999C73.1284 41.9999 69.9336 38.9832 69.9336 34.0741ZM80.0467 33.601L84.4271 8.57698C84.4883 8.28199 84.4883 8.10387 84.4883 7.86454C84.4883 7.21334 84.1933 6.85712 83.6033 6.85712C82.9521 6.85712 82.6571 7.33023 82.479 8.3933L78.1043 33.4174C78.043 33.7124 78.043 33.8905 78.043 34.1298C78.043 34.781 78.338 35.1372 78.928 35.1372C79.5792 35.1372 79.8742 34.6641 80.0523 33.601H80.0467Z" fill="#1D1D1B"/>
<path d="M90.0427 34.2524C90.0427 33.6012 90.1039 32.8331 90.2208 32.1206L95.7198 0.590088H103.941L98.141 33.5956C98.0798 33.8906 98.0798 34.1299 98.0798 34.308C98.0798 34.7811 98.3748 35.1373 98.8479 35.1373C99.3822 35.1373 99.6772 34.8423 99.8553 33.718L105.711 0.590088H113.814L107.959 33.6568C107.013 38.8609 103.345 42 98.4972 42C93.1707 42 90.0371 38.9221 90.0371 34.2524H90.0427Z" fill="#1D1D1B"/>
<path d="M118.373 7.3359H113.403L114.583 0.590088H132.744L131.564 7.3359H126.594L120.561 41.41H112.34L118.373 7.3359Z" fill="#1D1D1B"/>
<path d="M127.78 34.0741C127.78 33.3061 127.842 32.7717 127.958 31.9424L132.099 8.51575C133.046 3.07235 136.597 0 141.684 0C147.183 0 150.439 3.01669 150.439 7.92577C150.439 8.69385 150.378 9.22818 150.261 10.0575L146.12 33.4842C145.174 38.9276 141.567 41.9999 136.535 41.9999C130.975 41.9999 127.78 38.9832 127.78 34.0741ZM137.893 33.601L142.268 8.57698C142.329 8.28199 142.329 8.10387 142.329 7.86454C142.329 7.21334 142.034 6.85712 141.444 6.85712C140.793 6.85712 140.498 7.33023 140.32 8.3933L135.94 33.4174C135.879 33.7124 135.879 33.8905 135.879 34.1298C135.879 34.781 136.174 35.1372 136.764 35.1372C137.415 35.1372 137.71 34.6641 137.888 33.601H137.893Z" fill="#1D1D1B"/>
<path d="M153.745 0.595598H161.848C167.943 0.595598 170.487 3.55107 170.487 8.16516C170.487 9.05013 170.425 9.94066 170.253 10.8256L169.78 13.308C169.067 17.2709 167.414 19.2245 165.104 20.1095V20.2264C166.819 21.3507 167.587 23.1262 167.587 25.4304C167.587 26.1429 167.47 26.9666 167.348 27.7347L164.865 41.3989H156.644L159.366 26.3154C159.483 25.6642 159.483 25.308 159.483 25.013C159.483 24.0056 158.893 23.7106 157.947 23.7106H157.886L154.752 41.3989H146.531L153.75 0.584473L153.745 0.595598ZM159.305 16.9202C160.607 16.9202 161.08 16.3859 161.437 14.3766L162.205 9.94067C162.322 9.28946 162.383 8.93324 162.383 8.63825C162.383 7.69206 161.793 7.33584 160.847 7.33584H160.785L159.127 16.9202H159.305Z" fill="#1D1D1B"/>
<path d="M175.862 34.3135C175.862 33.6011 175.924 33.0111 176.04 32.3043L180.298 8.40448C181.244 2.96108 184.501 0.00561523 189.705 0.00561523C195.326 0.00561523 198.22 3.02231 198.22 7.75328C198.22 8.40448 198.159 8.99447 198.042 9.7069L196.918 15.9796H188.875L190.178 8.7607C190.295 8.17072 190.295 7.93139 190.295 7.6364C190.295 7.10208 190 6.86831 189.526 6.86831C188.936 6.86831 188.641 7.1633 188.463 8.22638L184.027 33.4842C183.966 33.7792 183.911 34.1354 183.911 34.3135C183.911 34.9035 184.267 35.1428 184.74 35.1428C185.391 35.1428 185.625 34.6697 185.803 33.6623L187.462 24.3173H195.504L193.846 33.4842C192.838 39.1057 189.643 42 184.556 42C178.996 42 175.862 39.0445 175.862 34.3079V34.3135Z" fill="#1D1D1B"/>
<path d="M195.616 33.6012H203.603L202.183 41.4101H194.196L195.616 33.6012Z" fill="#1D1D1B"/>
<path d="M211.59 0.595529H219.694C225.788 0.595529 228.332 3.551 228.332 8.16509C228.332 9.05006 228.271 9.94059 228.093 10.8256L224.247 33.0055C223.184 38.9776 219.75 41.4043 214.367 41.4043H204.371L211.59 0.589966V0.595529ZM213.955 34.6697C215.319 34.6697 215.848 34.1353 216.143 32.3042L220.045 9.94616C220.161 9.35618 220.223 8.93874 220.223 8.64375C220.223 7.69756 219.633 7.34134 218.686 7.34134H218.625L213.777 34.6697H213.955Z" fill="#1D1D1B"/>
<path d="M226.017 33.6012H234.004L232.585 41.4101H224.598L226.017 33.6012Z" fill="#1D1D1B"/>
<path d="M241.991 0.595337H257.787L256.545 7.34115H249.031L247.373 16.8031H253.996L252.755 23.5489H246.132L242.998 41.4153H234.777L241.996 0.600908L241.991 0.595337Z" fill="#1D1D1B"/>
<path d="M247.962 33.6012H255.949L254.53 41.4101H246.543L247.962 33.6012Z" fill="#1D1D1B"/>
</svg>
