<svg width="121" height="30" viewBox="0 0 121 30" fill="none" xmlns="http://www.w3.org/2000/svg">
<path d="M32.9196 24.8631H33.8531L33.0865 28.4519H32.1531L32.9196 24.8631ZM33.2607 23.3171H34.1942L33.9998 24.2084H33.0663L33.2607 23.3171Z" fill="#1D1D1B"/>
<path d="M35.0872 25.3804C35.1294 25.164 35.1642 24.977 35.177 24.8651H36.0903L36.028 25.2136H36.0426C36.3012 24.977 36.6551 24.7808 37.0604 24.7808C37.7646 24.7808 38.2304 25.2191 38.2304 25.9306C38.2304 26.202 38.1607 26.4881 38.1112 26.71L37.7353 28.4521H36.8018L37.1503 26.7595C37.1998 26.5156 37.2548 26.2717 37.2548 26.0076C37.2548 25.7087 37.0457 25.5051 36.7468 25.5051C36.0995 25.5051 35.8611 26.1121 35.7437 26.6476L35.3604 28.4521H34.427L35.089 25.3786L35.0872 25.3804Z" fill="#1D1D1B"/>
<path d="M39.3876 24.8634H40.0642L40.2238 24.1244L41.2269 23.7961L40.9977 24.8616H41.8339L41.6872 25.5438H40.851L40.5099 27.1117C40.4897 27.1961 40.4677 27.3208 40.4677 27.4602C40.4677 27.6766 40.6144 27.8086 40.8235 27.8086C40.9903 27.8086 41.1572 27.7738 41.2764 27.7243L41.1169 28.4486C40.9573 28.4835 40.7758 28.533 40.6144 28.533C39.9799 28.533 39.5343 28.2817 39.5343 27.5922C39.5343 27.3135 39.5893 27.0421 39.6535 26.756L39.9175 25.5438H39.2408L39.3876 24.8616V24.8634Z" fill="#1D1D1B"/>
<path d="M43.0314 26.9467C43.0314 27.6087 43.3872 27.8526 44.0272 27.8526C44.4104 27.8526 44.7791 27.7554 45.1275 27.594L45.0083 28.3331C44.6452 28.4449 44.2491 28.5348 43.8658 28.5348C42.8352 28.5348 42.1383 28.0323 42.1383 26.9668C42.1383 25.9014 43.0021 24.7791 44.1794 24.7791C45.0651 24.7791 45.6501 25.232 45.6501 26.1453C45.6501 26.4167 45.6153 26.6826 45.5603 26.9467H43.0314ZM44.7387 26.3048C44.7534 26.2205 44.7589 26.1453 44.7589 26.0609C44.7589 25.6776 44.5572 25.4612 44.1665 25.4612C43.5889 25.4612 43.3376 25.8097 43.1561 26.3048H44.7369H44.7387Z" fill="#1D1D1B"/>
<path d="M47.3794 23.2275H48.3128L47.2052 28.454H46.2717L47.3794 23.2275Z" fill="#1D1D1B"/>
<path d="M49.3105 24.8631H50.2439L49.4774 28.4519H48.5439L49.3105 24.8631ZM49.6516 23.3171H50.585L50.3906 24.2084H49.4572L49.6516 23.3171Z" fill="#1D1D1B"/>
<path d="M50.9408 28.9968C51.3094 29.1508 51.6652 29.2755 52.0704 29.2755C53.0607 29.2755 53.2056 28.586 53.4293 27.7699H53.4147C53.1781 28.2027 52.7251 28.4521 52.2098 28.4521C51.3387 28.4521 50.9628 27.7204 50.9628 26.9337C50.9628 25.8609 51.6175 24.7808 52.782 24.7808C53.2551 24.7808 53.6531 25.01 53.875 25.3878L53.9795 24.8651H54.8781C54.8506 24.9623 54.8084 25.1365 54.7589 25.3676L54.1867 28.0634C53.9575 29.2334 53.4477 29.9999 52.1383 29.9999C51.6505 29.9999 51.1627 29.9302 50.7024 29.756L50.939 28.9968H50.9408ZM52.9048 25.5051C52.2282 25.5051 51.9366 26.3909 51.9366 26.9264C51.9366 27.3592 52.1108 27.7278 52.5289 27.7278C53.2753 27.7278 53.5815 26.941 53.5815 26.257C53.5815 25.8389 53.3376 25.5051 52.9048 25.5051Z" fill="#1D1D1B"/>
<path d="M56.3764 26.9465C56.3764 27.6085 56.7321 27.8524 57.3721 27.8524C57.7554 27.8524 58.124 27.7552 58.4725 27.5939L58.3533 28.3329C57.9902 28.4448 57.594 28.5346 57.2108 28.5346C56.1801 28.5346 55.4833 28.0322 55.4833 26.9667C55.4833 25.9012 56.347 24.7789 57.5244 24.7789C58.4101 24.7789 58.9951 25.2319 58.9951 26.1451C58.9951 26.4165 58.9603 26.6824 58.9052 26.9465H56.3764ZM58.0837 26.3047C58.0984 26.2203 58.1039 26.1451 58.1039 26.0608C58.1039 25.6775 57.9021 25.4611 57.5115 25.4611C56.9339 25.4611 56.6826 25.8095 56.5011 26.3047H58.0818H58.0837ZM56.5231 24.3755L57.4217 23.3577H58.2231L58.7457 24.3755H58.1259L57.7774 23.7281L57.2199 24.3755H56.5231Z" fill="#1D1D1B"/>
<path d="M60.2787 25.3804C60.3209 25.164 60.3557 24.977 60.3686 24.8651H61.2818L61.2195 25.2136H61.2342C61.4927 24.977 61.8467 24.7808 62.2519 24.7808C62.9561 24.7808 63.4219 25.2191 63.4219 25.9306C63.4219 26.202 63.3523 26.4881 63.3027 26.71L62.9268 28.4521H61.9934L62.3418 26.7595C62.3913 26.5156 62.4463 26.2717 62.4463 26.0076C62.4463 25.7087 62.2373 25.5051 61.9384 25.5051C61.291 25.5051 61.0526 26.1121 60.9352 26.6476L60.552 28.4521H59.6185L60.2805 25.3786L60.2787 25.3804Z" fill="#1D1D1B"/>
<path d="M67.1704 25.6867C66.9889 25.5675 66.745 25.5051 66.4882 25.5051C65.7419 25.5051 65.3256 26.202 65.3256 26.8769C65.3256 27.3445 65.4796 27.8103 66.1196 27.8103C66.3489 27.8103 66.635 27.7479 66.8789 27.6287L66.7743 28.3678C66.4882 28.5072 66.182 28.5347 65.8757 28.5347C64.9496 28.5347 64.35 27.9148 64.35 26.9887C64.35 25.7344 65.1789 24.7808 66.4681 24.7808C66.8165 24.7808 67.1503 24.8431 67.4015 24.9201L67.1723 25.6867H67.1704Z" fill="#1D1D1B"/>
<path d="M68.4045 24.8631H69.3379L68.5714 28.4519H67.6379L68.4045 24.8631ZM68.7456 23.3171H69.679L69.4846 24.2084H68.5512L68.7456 23.3171Z" fill="#1D1D1B"/>
<path d="M72.1878 27.902H72.1731C71.8522 28.3054 71.5313 28.5365 71.016 28.5365C70.3686 28.5365 69.9083 28.1734 69.9083 27.5132C69.9083 26.3285 71.2324 26.2387 72.1108 26.2387H72.439C72.4666 26.1415 72.4666 26.037 72.4666 25.9324C72.4666 25.5693 72.0759 25.4648 71.7495 25.4648C71.3387 25.4648 70.9408 25.5693 70.5722 25.7435L70.7042 24.9972C71.1022 24.8578 71.5056 24.7808 71.9237 24.7808C72.6408 24.7808 73.3175 25.0448 73.3175 25.8884C73.3175 26.3689 72.9617 27.7773 72.8792 28.4521H72.0924L72.1896 27.902H72.1878ZM71.2745 27.8525C71.9714 27.8525 72.1878 27.372 72.3327 26.7925H72.0044C71.5515 26.7925 70.7996 26.8695 70.7996 27.4747C70.7996 27.7259 71.0361 27.8506 71.2727 27.8506L71.2745 27.8525Z" fill="#1D1D1B"/>
<path d="M78.6686 27.902H78.654C78.333 28.3054 78.0121 28.5365 77.4968 28.5365C76.8495 28.5365 76.3892 28.1734 76.3892 27.5132C76.3892 26.3285 77.7132 26.2387 78.5916 26.2387H78.9199C78.9474 26.1415 78.9474 26.037 78.9474 25.9324C78.9474 25.5693 78.5568 25.4648 78.2304 25.4648C77.8196 25.4648 77.4216 25.5693 77.053 25.7435L77.1851 24.9972C77.583 24.8578 77.9864 24.7808 78.4046 24.7808C79.1216 24.7808 79.7983 25.0448 79.7983 25.8884C79.7983 26.3689 79.4425 27.7773 79.36 28.4521H78.5733L78.6705 27.902H78.6686ZM77.7554 27.8525C78.4522 27.8525 78.6686 27.372 78.8135 26.7925H78.4853C78.0323 26.7925 77.2804 26.8695 77.2804 27.4747C77.2804 27.7259 77.517 27.8506 77.7535 27.8506L77.7554 27.8525Z" fill="#1D1D1B"/>
<path d="M83.9721 27.9369C83.9299 28.1533 83.8951 28.3404 83.8822 28.4523H82.969L83.0313 28.1038H83.0166C82.7581 28.3404 82.4041 28.5366 81.9989 28.5366C81.2947 28.5366 80.8289 28.0983 80.8289 27.3868C80.8289 27.1154 80.8985 26.8293 80.9481 26.6074L81.324 24.8652H82.2574L81.909 26.5579C81.8595 26.8018 81.8045 27.0457 81.8045 27.3098C81.8045 27.6087 82.0135 27.8122 82.3124 27.8122C82.9598 27.8122 83.1982 27.2052 83.3156 26.6697L83.6988 24.8652H84.6323L83.9702 27.9388L83.9721 27.9369Z" fill="#1D1D1B"/>
<path d="M85.5621 24.8634H86.2388L86.3984 24.1244L87.4015 23.7961L87.1722 24.8616H88.0085L87.8618 25.5438H87.0255L86.6844 27.1117C86.6643 27.1961 86.6423 27.3208 86.6423 27.4602C86.6423 27.6766 86.789 27.8086 86.998 27.8086C87.1649 27.8086 87.3318 27.7738 87.451 27.7243L87.2914 28.4486C87.1319 28.4835 86.9503 28.533 86.789 28.533C86.1545 28.533 85.7088 28.2817 85.7088 27.5922C85.7088 27.3135 85.7638 27.0421 85.828 26.756L86.0921 25.5438H85.4154L85.5621 24.8616V24.8634Z" fill="#1D1D1B"/>
<path d="M92.1456 26.3543C92.1456 27.616 91.2746 28.5348 90.0074 28.5348C88.9896 28.5348 88.3771 27.9076 88.3771 26.8972C88.3771 25.6978 89.2977 24.7791 90.5025 24.7791C91.4708 24.7791 92.1475 25.3641 92.1475 26.3543H92.1456ZM91.17 26.3617C91.17 25.894 91.0105 25.5053 90.4585 25.5053C89.7195 25.5053 89.3509 26.3213 89.3509 26.9687C89.3509 27.4418 89.5452 27.8122 90.0826 27.8122C90.8069 27.8122 91.17 26.976 91.17 26.3635V26.3617Z" fill="#1D1D1B"/>
<path d="M93.4843 25.2614C93.5118 25.122 93.5393 24.9753 93.5613 24.8634H94.4324L94.3481 25.3439H94.3627C94.614 24.9753 95.0248 24.7791 95.4631 24.7791C95.9013 24.7791 96.3268 25.0303 96.3763 25.4612H96.391C96.6275 24.9936 97.1502 24.7791 97.6527 24.7791C98.19 24.7791 98.6485 25.2173 98.6485 25.762C98.6485 26.0829 98.5641 26.4442 98.4889 26.7376L98.113 28.4523H97.1795L97.5555 26.7028C97.605 26.4864 97.6747 26.1526 97.6747 25.9362C97.6747 25.6721 97.473 25.5034 97.2364 25.5034C96.589 25.5034 96.4277 26.2553 96.3103 26.7431L95.9417 28.4504H95.0083L95.3842 26.7009C95.4337 26.4845 95.5034 26.1508 95.5034 25.9344C95.5034 25.6703 95.3017 25.5016 95.0651 25.5016C94.4306 25.5016 94.2564 26.2608 94.139 26.7413L93.7704 28.4486H92.837L93.4917 25.2577L93.4843 25.2614Z" fill="#1D1D1B"/>
<path d="M103.268 26.3543C103.268 27.616 102.397 28.5348 101.13 28.5348C100.112 28.5348 99.4993 27.9076 99.4993 26.8972C99.4993 25.6978 100.42 24.7791 101.625 24.7791C102.593 24.7791 103.27 25.3641 103.27 26.3543H103.268ZM102.292 26.3617C102.292 25.894 102.133 25.5053 101.581 25.5053C100.842 25.5053 100.473 26.3213 100.473 26.9687C100.473 27.4418 100.667 27.8122 101.205 27.8122C101.929 27.8122 102.292 26.976 102.292 26.3635V26.3617Z" fill="#1D1D1B"/>
<path d="M104.321 24.8634H104.997L105.157 24.1244L106.16 23.7961L105.931 24.8616H106.767L106.62 25.5438H105.784L105.443 27.1117C105.423 27.1961 105.401 27.3208 105.401 27.4602C105.401 27.6766 105.547 27.8086 105.756 27.8086C105.923 27.8086 106.09 27.7738 106.209 27.7243L106.05 28.4486C105.89 28.4835 105.709 28.533 105.547 28.533C104.913 28.533 104.467 28.2817 104.467 27.5922C104.467 27.3135 104.522 27.0421 104.586 26.756L104.851 25.5438H104.174L104.321 24.8616V24.8634Z" fill="#1D1D1B"/>
<path d="M107.763 24.8631H108.696L107.93 28.4519H106.996L107.763 24.8631ZM108.104 23.3171H109.037L108.843 24.2084H107.909L108.104 23.3171Z" fill="#1D1D1B"/>
<path d="M109.582 24.8633H110.537L110.9 27.4967H110.915L112.329 24.8633H113.319L111.221 28.4521H110.191L109.584 24.8633H109.582Z" fill="#1D1D1B"/>
<path d="M115.755 27.902H115.74C115.419 28.3054 115.098 28.5365 114.583 28.5365C113.935 28.5365 113.475 28.1734 113.475 27.5132C113.475 26.3285 114.799 26.2387 115.678 26.2387H116.006C116.033 26.1415 116.033 26.037 116.033 25.9324C116.033 25.5693 115.643 25.4648 115.316 25.4648C114.906 25.4648 114.508 25.5693 114.139 25.7435L114.271 24.9972C114.669 24.8578 115.072 24.7808 115.491 24.7808C116.208 24.7808 116.884 25.0448 116.884 25.8884C116.884 26.3689 116.529 27.7773 116.446 28.4521H115.659L115.756 27.902H115.755ZM114.841 27.8525C115.538 27.8525 115.755 27.372 115.9 26.7925H115.571C115.118 26.7925 114.366 26.8695 114.366 27.4747C114.366 27.7259 114.603 27.8506 114.84 27.8506L114.841 27.8525Z" fill="#1D1D1B"/>
<path fill-rule="evenodd" clip-rule="evenodd" d="M16.5322 0C24.3187 0 29.5599 6.37264 28.234 14.2289C26.91 22.0869 19.5195 28.4596 11.733 28.4596C6.28461 28.4596 2.08326 25.3383 0.50431 20.7739C2.31065 20.7684 4.11517 20.7831 5.91968 20.8252C9.71025 20.9114 12.7875 17.9718 12.7875 14.4508C12.7875 11.346 10.3943 8.75848 7.22721 8.19182C6.75408 8.10746 6.38731 8.07629 5.92151 8.07629H2.45553C5.53457 3.2991 10.9298 0 16.5322 0ZM7.50963 23.2441C9.64973 23.2349 11.7917 23.2954 13.9263 23.3064L15.6006 23.3156C20.9976 23.3449 25.375 19.1839 25.375 14.0895C25.375 9.81111 22.2886 6.21309 18.1038 5.1678C17.3849 4.98808 16.6514 4.86154 15.938 4.86154H7.50963V5.03576C12.0007 5.86833 15.3915 9.60572 15.3915 14.0895C15.3915 18.5733 12.0026 22.3107 7.50963 23.1432V23.2441ZM0.467632 20.6584C3.50816 20.0018 5.7748 17.473 5.7748 14.4508C5.7748 11.9732 4.2527 9.82762 2.02824 8.77132C1.67064 9.38749 1.35155 10.0238 1.07464 10.6785C2.37117 11.4946 3.22575 12.8865 3.22575 14.4673C3.22575 16.4533 1.87787 18.1405 0 18.7621C0.108197 19.4168 0.265909 20.0495 0.467632 20.6565V20.6584Z" fill="#EF7D00"/>
<path d="M35.0339 7.13721H40.4071C44.6855 7.13721 44.1848 10.5207 43.3944 14.2416C42.604 17.9624 41.6669 21.3459 37.3886 21.3459H32.0154L35.0339 7.13904V7.13721ZM36.2828 18.6776H37.0181C38.4504 18.6776 38.7566 18.0816 39.5727 14.2397C40.3888 10.3996 40.3374 9.8018 38.9033 9.8018H38.168L36.2828 18.6758V18.6776Z" fill="#1D1D1B"/>
<path d="M51.1315 6.85864C54.9129 6.85864 55.7657 8.92906 54.6378 14.2417C53.51 19.5544 51.7752 21.6248 47.9956 21.6248C44.2161 21.6248 43.3615 19.5544 44.4893 14.2417C45.6171 8.92906 47.352 6.85864 51.1315 6.85864ZM48.5274 19.1161C49.6608 19.1161 50 18.0818 50.8161 14.2417C51.6322 10.4016 51.733 9.36735 50.5979 9.36735C49.4627 9.36735 49.1253 10.4016 48.3092 14.2417C47.4932 18.0818 47.3923 19.1161 48.5274 19.1161Z" fill="#1D1D1B"/>
<path d="M60.9811 7.13721L58.8043 17.3848C58.5127 18.7583 58.8538 19.1159 59.5506 19.1159C60.2475 19.1159 60.7408 18.7583 61.0324 17.3848L63.2092 7.13721H66.9099L64.9312 16.4495C64.0858 20.429 62.1199 21.6228 59.017 21.6228C55.9141 21.6228 54.4544 20.429 55.3016 16.4495L57.2803 7.13721H60.9811Z" fill="#1D1D1B"/>
<path d="M69.6644 10.2804H66.8788L67.5463 7.13721H76.8183L76.1507 10.2804H73.3651L71.0141 21.3441H67.3134L69.6644 10.2804Z" fill="#1D1D1B"/>
<path d="M82.3309 6.85864C86.1123 6.85864 86.965 8.92906 85.8372 14.2417C84.7094 19.5544 82.9745 21.6248 79.195 21.6248C75.4154 21.6248 74.5608 19.5544 75.6886 14.2417C76.8165 8.92906 78.5513 6.85864 82.3309 6.85864ZM79.7268 19.1161C80.8601 19.1161 81.1994 18.0818 82.0154 14.2417C82.8315 10.4016 82.9324 9.36735 81.7972 9.36735C80.6621 9.36735 80.3246 10.4016 79.5086 14.2417C78.6925 18.0818 78.5916 19.1161 79.7268 19.1161Z" fill="#1D1D1B"/>
<path d="M88.6375 7.13721H94.4288C97.2548 7.13721 97.9902 8.72899 97.5262 10.9186C97.1246 12.8093 96.127 14.0435 94.3793 14.3021L94.3702 14.3424C96.127 14.502 96.4241 15.6353 96.0225 17.526L95.7639 18.74C95.608 19.4754 95.4045 20.4308 95.5237 20.7096C95.5897 20.8691 95.6355 21.0286 95.8482 21.1478L95.8061 21.3459H91.867C91.6689 20.5904 91.9568 19.237 92.0833 18.6391L92.2869 17.6837C92.6298 16.0717 92.4006 15.6536 91.5039 15.6536H90.5282L89.3197 21.3441H85.619L88.6375 7.13721ZM91.0619 13.1467H91.7973C92.8517 13.1467 93.4936 12.4701 93.7081 11.4559C93.9539 10.3024 93.6018 9.80363 92.4868 9.80363H91.7698L91.0601 13.1467H91.0619Z" fill="#1D1D1B"/>
<path d="M98.2249 14.082H104.432L103.791 17.1061H97.583L98.2249 14.082Z" fill="#1D1D1B"/>
<path d="M107.161 7.13721H110.862L107.843 21.3441H104.143L107.161 7.13721Z" fill="#1D1D1B"/>
<path d="M112.435 7.13721H120.853L120.211 10.1612H115.494L114.979 12.5893H119.397L118.779 15.4941H114.361L113.761 18.32H118.656L118.014 21.3441H109.419L112.437 7.13721H112.435Z" fill="#1D1D1B"/>
</svg>
