<svg width="72" height="72" viewBox="0 0 72 72" fill="none" xmlns="http://www.w3.org/2000/svg">
<path d="M27.27 51.3L51.3 36L27.27 20.7V51.3ZM36 72C31.08 72 26.43 71.055 22.05 69.165C17.67 67.275 13.845 64.695 10.575 61.425C7.305 58.155 4.725 54.33 2.835 49.95C0.945 45.57 0 40.92 0 36C0 31.02 0.945 26.34 2.835 21.96C4.725 17.58 7.305 13.77 10.575 10.53C13.845 7.29 17.67 4.725 22.05 2.835C26.43 0.945 31.08 0 36 0C40.98 0 45.66 0.945 50.04 2.835C54.42 4.725 58.23 7.29 61.47 10.53C64.71 13.77 67.275 17.58 69.165 21.96C71.055 26.34 72 31.02 72 36C72 40.92 71.055 45.57 69.165 49.95C67.275 54.33 64.71 58.155 61.47 61.425C58.23 64.695 54.42 67.275 50.04 69.165C45.66 71.055 40.98 72 36 72ZM36 66.6C44.52 66.6 51.75 63.615 57.69 57.645C63.63 51.675 66.6 44.46 66.6 36C66.6 27.48 63.63 20.25 57.69 14.31C51.75 8.37 44.52 5.4 36 5.4C27.54 5.4 20.325 8.37 14.355 14.31C8.385 20.25 5.4 27.48 5.4 36C5.4 44.46 8.385 51.675 14.355 57.645C20.325 63.615 27.54 66.6 36 66.6Z" fill="#EF7D00"/>
</svg>
